<svg id="Layer_1" data-name="Layer 1" xmlns="http://www.w3.org/2000/svg" viewBox="0 0 750 420"><defs><style>.cls-1{fill:#eff9f8;}.cls-2{fill:#263238;}.cls-3{fill:#33475b;}.cls-4,.cls-5{fill:#fff;}.cls-5{stroke:#000;stroke-miterlimit:10;stroke-width:0.5px;}.cls-6{fill:#00bda5;}.cls-7{fill:#ff725e;}.cls-8{fill:#0bdbbd;}.cls-9{fill:#e0e0e0;}.cls-10{fill:#253342;}.cls-11{fill:#455a64;}.cls-12{fill:#fafafa;}.cls-13{fill:#7c98b6;}</style></defs><rect class="cls-1" x="-1.32" y="-0.6" width="752.63" height="421.2"/><g id="freepik--Floor--inject-25"><path class="cls-2" d="M718.32,332.7c0,.14-153.59.27-343,.27s-343-.13-343-.27,153.55-.28,343-.28S718.32,332.54,718.32,332.7Z"/></g><g id="freepik--Device--inject-34"><path class="cls-3" d="M560.23,85.42H280a8.75,8.75,0,0,0-8.75,8.75v197.9a8.75,8.75,0,0,0,8.75,8.75H387.57s6.85,21.15-14.36,32.1H473.76s-23.94-8.21-17.76-32.1H560.23a8.74,8.74,0,0,0,8.74-8.75V94.17A8.74,8.74,0,0,0,560.23,85.42Z"/><path class="cls-2" d="M423.88,280c3.8,5.45-2.14,11.41-7.61,7.6a2.05,2.05,0,0,1-.47-.46c-3.8-5.45,2.14-11.41,7.61-7.61A2.33,2.33,0,0,1,423.88,280Z"/><path class="cls-4" d="M286.87,96.76H553.3a6.7,6.7,0,0,1,6.7,6.7h0V267.52H280.17V103.46A6.7,6.7,0,0,1,286.87,96.76Z"/><path class="cls-2" d="M510.13,300.84c0,.1-39.86.17-89,.17s-89-.07-89-.17,39.87-.16,89-.16S510.13,300.75,510.13,300.84Z"/></g><rect class="cls-1" x="288.66" y="104.14" width="261.48" height="147.54"/><path class="cls-5" d="M550.14,251.68c0-1.11,0-56.89-.13-147.54l.13.14-261.71,0h0l.18-.19V251.68l-.17-.16,261.74.16-261.74.18h-.19V104h.21l261.71.05h.14v.13C550.19,194.77,550.14,250.57,550.14,251.68Z"/><path class="cls-6" d="M494.44,174.06c0,.07-12.9.14-28.83.14s-28.83-.07-28.83-.14,12.9-.15,28.83-.15S494.44,174,494.44,174.06Z"/><path class="cls-2" d="M515.84,187.55c0,.08-18,.14-40.15.14s-40.14-.06-40.14-.14,18-.14,40.14-.14S515.84,187.49,515.84,187.55Z"/><path class="cls-2" d="M515.84,194.11c0,.07-18,.14-40.15.14s-40.14-.07-40.14-.14,18-.15,40.14-.15S515.84,194,515.84,194.11Z"/><path class="cls-6" d="M464.16,215.89H441.27a6.18,6.18,0,0,1-6.34-6h0a6.18,6.18,0,0,1,6.34-6h22.89a6.18,6.18,0,0,1,6.34,6h0A6.18,6.18,0,0,1,464.16,215.89Z"/><rect class="cls-6" x="329.31" y="169.57" width="72.26" height="51.46" transform="translate(-0.64 1.21) rotate(-0.19)"/><polygon class="cls-1" points="329.41 220.14 354.53 188.07 370.24 208.03 380.81 197.29 401.68 219.89 329.41 220.14"/><path class="cls-1" d="M376.79,178.73a5.7,5.7,0,1,1-5.71-5.37h0A5.55,5.55,0,0,1,376.79,178.73Z"/><rect class="cls-6" x="405.42" y="170.53" width="21.35" height="15.2" transform="translate(-0.59 1.38) rotate(-0.19)"/><polygon class="cls-7" points="405.46 185.75 412.88 176.28 417.51 182.18 420.63 179 426.8 185.68 405.46 185.75"/><path class="cls-7" d="M419.45,175.1a1.68,1.68,0,1,1-1.69-1.59,1.64,1.64,0,0,1,1.69,1.59Z"/><polygon class="cls-8" points="405.46 185.75 412.88 176.28 417.51 182.18 420.63 179 426.8 185.68 405.46 185.75"/><path class="cls-8" d="M419.45,175.1a1.68,1.68,0,1,1-1.69-1.59,1.64,1.64,0,0,1,1.69,1.59Z"/><rect class="cls-6" x="405.42" y="169.73" width="21.35" height="15.2" transform="translate(-0.58 1.38) rotate(-0.19)"/><polygon class="cls-1" points="405.46 183.96 412.88 174.48 417.51 180.38 420.63 177.2 426.8 183.88 405.46 183.96"/><path class="cls-1" d="M419.45,173.3a1.68,1.68,0,1,1-1.69-1.59,1.64,1.64,0,0,1,1.69,1.59Z"/><rect class="cls-6" x="405.42" y="188.05" width="21.35" height="15.2" transform="translate(-0.64 1.38) rotate(-0.19)"/><polygon class="cls-1" points="405.46 202.27 412.88 192.8 417.51 198.69 420.63 195.52 426.8 202.2 405.46 202.27"/><path class="cls-1" d="M419.45,191.62a1.68,1.68,0,0,1-3.36,0,1.68,1.68,0,0,1,3.36,0Z"/><rect class="cls-6" x="405.41" y="206.14" width="21.35" height="15.2" transform="translate(-0.7 1.38) rotate(-0.19)"/><polygon class="cls-1" points="405.45 220.36 412.87 210.88 417.5 216.78 420.62 213.61 426.79 220.29 405.45 220.36"/><path class="cls-1" d="M419.44,209.71a1.69,1.69,0,1,1-1.69-1.59A1.63,1.63,0,0,1,419.44,209.71Z"/><circle class="cls-2" cx="361.94" cy="226.86" r="1.46"/><circle class="cls-9" cx="368.55" cy="226.86" r="1.46"/><circle class="cls-9" cx="375.15" cy="226.86" r="1.46"/><path class="cls-2" d="M470.14,235.55c0,.08-31.41.15-70.15.15s-70.15-.07-70.15-.15,31.4-.15,70.15-.15S470.14,235.46,470.14,235.55Z"/><path class="cls-2" d="M470.14,243.43c0,.08-31.41.15-70.15.15s-70.15-.07-70.15-.15,31.4-.15,70.15-.15S470.14,243.35,470.14,243.43Z"/><path class="cls-10" d="M62.58,167.7H294a6.43,6.43,0,0,1,6.43,6.43V316a13.89,13.89,0,0,1-13.9,13.89H69.11A13.89,13.89,0,0,1,55.22,316h0V175.09a7.39,7.39,0,0,1,7.39-7.39Z"/><path class="cls-10" d="M44.7,319.05H310.36v1.11a13.08,13.08,0,0,1-13.08,13.08H57.74a13.08,13.08,0,0,1-13.08-13.08h0v-1.11h0Z"/><rect class="cls-11" x="61.77" y="174.14" width="231.35" height="136.93"/><polygon class="cls-11" points="153.62 317.85 156.92 323.1 203.3 323.1 206.36 317.85 153.62 317.85"/><rect class="cls-4" x="69.49" y="183.26" width="213.01" height="127.76"/><path class="cls-2" d="M78.58,189.56a1.8,1.8,0,1,1-1.79-1.79h0a1.78,1.78,0,0,1,1.78,1.78Z"/><path class="cls-2" d="M85.87,189.56a1.79,1.79,0,1,1-1.79-1.79h0a1.78,1.78,0,0,1,1.78,1.78Z"/><path class="cls-2" d="M93.17,189.56a1.8,1.8,0,1,1-1.81-1.79,1.78,1.78,0,0,1,1.81,1.75Z"/><rect class="cls-11" x="55.19" y="317.97" width="245.21" height="0.78"/><path class="cls-2" d="M227.11,256.29c0,.13-22.7.25-50.69.25s-50.74-.12-50.74-.25,22.69-.25,50.7-.25S227.11,256.14,227.11,256.29Z"/><path class="cls-2" d="M202.46,259.78c0,.14-12.16.24-27.16.24s-27.16-.1-27.16-.24,12.15-.25,27.12-.25S202.46,259.64,202.46,259.78Z"/><rect class="cls-6" x="85" y="271.6" width="56.86" height="37.08"/><path class="cls-12" d="M138.77,280.88,136.86,279l-1.73,1.78-.06-5.31h3.62Zm-1.91-2.07.06.06,1.65,1.61,0-4.85h-3.29v4.77Z"/><rect class="cls-6" x="210.84" y="271.71" width="56.86" height="37.08"/><path class="cls-12" d="M219.1,279.07a2.28,2.28,0,1,1-2.29-2.27,2.28,2.28,0,0,1,2.29,2.27Z"/><path class="cls-12" d="M264.61,281l-1.9-1.84L261,280.93l-.06-5.31h3.62Zm-1.9-2.07.05.06,1.65,1.61,0-4.85h-3.29v4.77Z"/><path class="cls-12" d="M250.29,277.86c0,.13-6.24.25-13.95.25s-14-.12-14-.25,6.25-.25,14-.25S250.29,277.76,250.29,277.86Z"/><path class="cls-12" d="M233.15,281a30.22,30.22,0,0,1-5.38.25,30.22,30.22,0,0,1-5.38-.25,28.46,28.46,0,0,1,5.38-.25A28.46,28.46,0,0,1,233.15,281Z"/><rect class="cls-13" x="147.98" y="271.6" width="56.86" height="37.08"/><path class="cls-12" d="M156.19,279a2.28,2.28,0,1,1-2.28-2.28,2.28,2.28,0,0,1,2.28,2.28Z"/><path class="cls-12" d="M187.44,277.75c0,.13-6.25.25-13.95.25s-14-.12-14-.25,6.24-.25,14-.25S187.44,277.65,187.44,277.75Z"/><path class="cls-12" d="M170.29,280.88a30.15,30.15,0,0,1-5.37.25,30.22,30.22,0,0,1-5.38-.25,28.46,28.46,0,0,1,5.38-.25A28.39,28.39,0,0,1,170.29,280.88Z"/><path class="cls-12" d="M93.07,278.48a2.28,2.28,0,1,1-2.28-2.28,2.28,2.28,0,0,1,2.28,2.28Z"/><path class="cls-12" d="M124.32,277.27c0,.13-6.25.25-13.95.25s-14-.12-14-.25,6.24-.25,14-.25S124.32,277.17,124.32,277.27Z"/><path class="cls-12" d="M107.17,280.4a30.15,30.15,0,0,1-5.37.25,30.22,30.22,0,0,1-5.38-.25,28.46,28.46,0,0,1,5.38-.25A28.39,28.39,0,0,1,107.17,280.4Z"/><path class="cls-6" d="M119.84,200.8c-3.91.76-8-.06-11.92.55-7.87,1.2-13.76,7.69-21,11a27.27,27.27,0,0,1-17.43,1.59v20.67A61.61,61.61,0,0,1,95.4,228.2c16.5-.5,32.67,4.05,48.94,6.9s33.71,3.81,48.63-3.25c12-5.72,21.09-16.09,32.2-23.4,16.67-11,38-14.18,57.36-9.49v-3.5H126.84C125.87,198.16,122.82,200.22,119.84,200.8Zm35.71,4.64a8.43,8.43,0,1,1-8.43,8.43h0A8.43,8.43,0,0,1,155.55,205.44Z"/><path class="cls-7" d="M225.13,208.45c-11.11,7.31-20.2,17.71-32.2,23.43C178,239,160.58,238,144.3,235.13s-32.42-7.4-48.94-6.9a61.65,61.65,0,0,0-25.89,6.41v13.18h213V199C263.14,194.27,241.81,197.48,225.13,208.45Zm-55.19,33.19a.84.84,0,1,1,.84-.84.84.84,0,0,1-.84.84Zm5.32,0a.84.84,0,1,1,.84-.84A.84.84,0,0,1,175.26,241.64Zm5.31,0a.84.84,0,1,1,.84-.84.84.84,0,0,1-.84.84Zm93.49-18.89a2.75,2.75,0,1,1,0,3.89h0a2.74,2.74,0,0,1,0-3.87Z"/><path class="cls-2" d="M169.94,240a.84.84,0,1,0,0,1.68h0a.84.84,0,1,0,0-1.68Z"/><circle class="cls-2" cx="175.26" cy="240.8" r="0.84"/><circle class="cls-2" cx="180.57" cy="240.8" r="0.84"/><path class="cls-7" d="M86.92,212.35c7.24-3.31,13.13-9.8,21-11,3.94-.61,8,.21,11.92-.55,3-.58,6-2.64,7-5.34H69.49v18.48A27.27,27.27,0,0,0,86.92,212.35Z"/><path class="cls-13" d="M86.92,212.35c7.24-3.31,13.13-9.8,21-11,3.94-.61,8,.21,11.92-.55,3-.58,6-2.64,7-5.34H69.49v18.48A27.27,27.27,0,0,0,86.92,212.35Z"/><circle class="cls-7" cx="155.55" cy="213.86" r="8.43"/><circle class="cls-13" cx="155.55" cy="213.86" r="8.43"/><path class="cls-13" d="M225.13,208.45c-11.11,7.31-20.2,17.71-32.2,23.43C178,239,160.58,238,144.3,235.13s-32.42-7.4-48.94-6.9a61.65,61.65,0,0,0-25.89,6.41v13.18h213V199C263.14,194.27,241.81,197.48,225.13,208.45Zm-55.19,33.19a.84.84,0,1,1,.84-.84.84.84,0,0,1-.84.84Zm5.32,0a.84.84,0,1,1,.84-.84A.84.84,0,0,1,175.26,241.64Zm5.31,0a.84.84,0,1,1,.84-.84.84.84,0,0,1-.84.84Zm93.49-18.89a2.75,2.75,0,1,1,0,3.89h0a2.74,2.74,0,0,1,0-3.87Z"/><path class="cls-6" d="M350.52,110.39c-4.79.92-9.79-.08-14.61.66-9.65,1.48-16.88,9.44-25.73,13.5a33.41,33.41,0,0,1-21.37,2v25.35A75.61,75.61,0,0,1,320.55,144c20.24-.61,40.07,5,60,8.47s41.33,4.67,59.63-4c14.72-7,25.87-19.73,39.49-28.69,20.45-13.46,46.62-17.39,70.34-11.64v-4.29H359.11C357.92,107.15,354.18,109.68,350.52,110.39Zm43.8,5.68A10.34,10.34,0,1,1,384,126.41h0A10.34,10.34,0,0,1,394.32,116.07Z"/><path class="cls-13" d="M310.6,125c9.06-4.14,16.44-12.27,26.26-13.78,4.93-.76,10,.27,14.92-.68,3.74-.72,7.55-3.3,8.77-6.68H288.79V127A34.14,34.14,0,0,0,310.6,125Z"/><circle class="cls-13" cx="393.96" cy="126.64" r="10.7"/><path class="cls-13" d="M479.68,118.17c-13.63,8.07-24.77,19.53-39.5,25.84-18.27,7.84-39.67,6.73-59.64,3.59s-39.76-8.16-60-7.62a82.64,82.64,0,0,0-31.75,7.08V161.6H550V107.7C526.3,102.53,500.13,106.06,479.68,118.17ZM412,154.79a.93.93,0,1,1,1-.93,1,1,0,0,1-1,.93Zm6.53,0a.93.93,0,1,1,1-.93A1,1,0,0,1,418.52,154.79Zm6.51,0a.93.93,0,1,1,1-.93,1,1,0,0,1-1,.93ZM539.69,134a3.64,3.64,0,0,1,4.77,0,2.83,2.83,0,0,1,0,4.29,3.64,3.64,0,0,1-4.76,0h0a2.81,2.81,0,0,1,0-4.27Z"/><path class="cls-2" d="M81.31,288a6,6,0,0,1-.78.73c-.5.43-1.2,1-2,1.64v-.14h0c.77.66,1.46,1.28,1.9,1.73a5.53,5.53,0,0,1,.77.76,6,6,0,0,1-.85-.65c-.52-.42-1.22-1-2-1.69h0l-.09-.08.09-.07,2-1.61A7.06,7.06,0,0,1,81.31,288Z"/><path class="cls-2" d="M272.68,288a6,6,0,0,0,.78.73c.5.43,1.2,1,2,1.64v-.14h0c-.77.66-1.47,1.28-1.9,1.73a5.6,5.6,0,0,0-.78.76,5.54,5.54,0,0,0,.86-.65c.52-.42,1.22-1,2-1.69h0l.1-.08-.1-.07c-.78-.63-1.49-1.2-2-1.61A6.34,6.34,0,0,0,272.68,288Z"/><g id="freepik--device-4--inject-130"><path class="cls-10" d="M556.37,171.83h96.24c6.63,0,12,5,12,11.16V321.16c0,6.17-5.37,11.16-12,11.16H556.37c-6.63,0-12-5-12-11.16V183C544.36,176.83,549.74,171.83,556.37,171.83Z"/><rect class="cls-4" x="552.27" y="182.81" width="104.61" height="134.04"/><path class="cls-11" d="M609,324.26a4.29,4.29,0,1,1-4.29-4.29,4.29,4.29,0,0,1,4.29,4.29Z"/><rect class="cls-11" x="587.82" y="176.45" width="33.69" height="1.77" rx="0.88"/><rect class="cls-13" x="606.06" y="243.51" width="41.9" height="27.33"/><path class="cls-12" d="M612.14,248.93a1.68,1.68,0,1,1-1.68-1.68h0a1.67,1.67,0,0,1,1.68,1.66Z"/><path class="cls-12" d="M645.69,250.37,644.3,249,643,250.33v-3.91h2.67Zm-1.39-1.52h0l1.21,1.19v-3.57H643.1V250Z"/><path class="cls-12" d="M635.13,248c0,.14-4.6.25-10.27.25s-10.28-.11-10.28-.25,4.6-.25,10.28-.25A101.35,101.35,0,0,1,635.13,248Z"/><path class="cls-12" d="M622.51,250.37a31.88,31.88,0,0,1-7.93,0A31,31,0,0,1,622.51,250.37Z"/><path class="cls-6" d="M561.94,187.09c-3.14.61-6.4-.05-9.56.44h-.11v21.9c9.82,1,19.54,3.44,29.31,5.15,13,2.28,27.06,3.09,39-2.61,9.67-4.58,16.91-12.9,25.82-18.76a54.77,54.77,0,0,1,10.5-5.38v-5H567.56C566.79,185,564.34,186.63,561.94,187.09Zm28.65,3.72a6.77,6.77,0,1,1-6.77,6.77A6.77,6.77,0,0,1,590.59,190.81Z"/><path class="cls-7" d="M620.57,212c-12,5.7-26,4.89-39,2.61-9.77-1.71-19.49-4.18-29.31-5.15v15.33H656.89V187.85a54.77,54.77,0,0,0-10.5,5.38C637.48,199.14,630.17,207.41,620.57,212Zm-19.41,8.7a.58.58,0,0,1-.57-.59.58.58,0,0,1,1.16,0,.57.57,0,0,1-.58.57Zm3.68,0a.58.58,0,0,1-.57-.59.58.58,0,0,1,1.16,0,.57.57,0,0,1-.58.57h0Zm3.69,0a.58.58,0,1,1,.58-.58A.58.58,0,0,1,608.53,220.69Z"/><path class="cls-13" d="M620.57,212c-12,5.7-26,4.89-39,2.61-9.77-1.71-19.49-4.18-29.31-5.15v15.33H656.89V187.85a54.77,54.77,0,0,0-10.5,5.38C637.48,199.14,630.17,207.41,620.57,212Zm-19.41,8.7a.58.58,0,0,1-.57-.59.58.58,0,0,1,1.16,0,.57.57,0,0,1-.58.57Zm3.68,0a.58.58,0,0,1-.57-.59.58.58,0,0,1,1.16,0,.57.57,0,0,1-.58.57h0Zm3.69,0a.58.58,0,1,1,.58-.58A.58.58,0,0,1,608.53,220.69Z"/><path class="cls-2" d="M601.17,219.52a.59.59,0,0,0-.57.59.58.58,0,0,0,.59.57.57.57,0,0,0,.57-.58.58.58,0,0,0-.58-.58Z"/><path class="cls-2" d="M604.84,219.52a.59.59,0,0,0-.57.59.58.58,0,0,0,.59.57.57.57,0,0,0,.57-.58.58.58,0,0,0-.58-.58Z"/><path class="cls-2" d="M608.53,219.52a.58.58,0,1,0,.58.58A.58.58,0,0,0,608.53,219.52Z"/><circle class="cls-7" cx="590.59" cy="197.57" r="6.76"/><circle class="cls-13" cx="590.59" cy="197.57" r="6.76"/><path class="cls-7" d="M561.94,187.09c2.4-.46,4.84-2.12,5.62-4.28H552.27v4.73h.11C555.54,187,558.8,187.7,561.94,187.09Z"/><path class="cls-2" d="M645.24,233.34c0,.14-18.21.25-40.66.25s-40.66-.11-40.66-.25,18.2-.25,40.66-.25S645.24,233.2,645.24,233.34Z"/><path class="cls-2" d="M625.46,236.14c0,.15-9.75.25-21.78.25s-21.78-.1-21.78-.25,9.75-.25,21.78-.25S625.46,236,625.46,236.14Z"/><rect class="cls-6" x="558.38" y="243.51" width="41.9" height="27.33"/><path class="cls-12" d="M564.44,248.93a1.69,1.69,0,1,1-1.68-1.68h0a1.67,1.67,0,0,1,1.68,1.66Z"/><path class="cls-12" d="M598,250.37,596.62,249l-1.25,1.28,0-3.91H598Zm-1.38-1.52h0l1.21,1.19v-3.57h-2.42V250Z"/><path class="cls-12" d="M587.44,248c0,.14-4.6.25-10.27.25s-10.28-.11-10.28-.25,4.6-.25,10.28-.25A101.35,101.35,0,0,1,587.44,248Z"/><path class="cls-12" d="M574.82,250.37a31.88,31.88,0,0,1-7.93,0A31,31,0,0,1,574.82,250.37Z"/><path class="cls-2" d="M600.27,274.54c0,.13-9.37.25-20.95.25s-20.94-.12-20.94-.25,9.37-.25,20.94-.25S600.27,274.41,600.27,274.54Z"/><path class="cls-2" d="M600.27,277c0,.14-9.37.25-20.95.25s-20.94-.11-20.94-.25,9.37-.25,20.94-.25S600.27,276.91,600.27,277Z"/><path class="cls-2" d="M580.21,279.53c0,.14-4.89.26-10.92.26s-10.91-.12-10.91-.26,4.89-.25,10.91-.25S580.21,279.37,580.21,279.53Z"/><rect class="cls-6" x="558.38" y="284.35" width="41.9" height="27.33"/><path class="cls-12" d="M564.44,289.76a1.69,1.69,0,1,1-1.68-1.68h0A1.68,1.68,0,0,1,564.44,289.76Z"/><path class="cls-12" d="M598,291.17l-1.38-1.34-1.25,1.3,0-3.91H598Zm-1.38-1.51h0l1.21,1.18v-3.56h-2.42v3.5Z"/><path class="cls-12" d="M587.44,288.87c0,.14-4.6.25-10.27.25s-10.28-.11-10.28-.25,4.6-.25,10.28-.25S587.44,288.74,587.44,288.87Z"/><path class="cls-12" d="M574.82,291.17a31,31,0,0,1-7.93,0A31.88,31.88,0,0,1,574.82,291.17Z"/><path class="cls-2" d="M600.27,315.38c0,.14-9.37.25-20.95.25s-20.94-.11-20.94-.25,9.37-.25,20.94-.25S600.27,315.24,600.27,315.38Z"/><rect class="cls-13" x="607.18" y="284.35" width="41.9" height="27.33"/><path class="cls-12" d="M613.26,289.76a1.68,1.68,0,1,1-1.68-1.68h0A1.68,1.68,0,0,1,613.26,289.76Z"/><path class="cls-12" d="M646.82,291.17l-1.38-1.34-1.29,1.3v-3.91h2.66Zm-1.38-1.51h0l1.21,1.18v-3.56h-2.42v3.5Z"/><path class="cls-12" d="M636.26,288.87c0,.14-4.6.25-10.27.25s-10.32-.08-10.32-.25a97.93,97.93,0,0,1,10.28-.25C631.63,288.62,636.26,288.74,636.26,288.87Z"/><path class="cls-12" d="M623.63,291.17a30.88,30.88,0,0,1-7.92,0A31.8,31.8,0,0,1,623.63,291.17Z"/><path class="cls-2" d="M649.09,315.38c0,.14-9.39.25-21,.25s-21-.11-21-.25,9.39-.25,21-.25S649.09,315.24,649.09,315.38Z"/><path class="cls-2" d="M648.54,274.54c0,.13-9.38.25-20.95.25s-21-.12-21-.25,9.38-.25,21-.25S648.54,274.41,648.54,274.54Z"/><path class="cls-2" d="M648.54,277c0,.14-9.38.25-20.95.25s-21-.11-21-.25,9.38-.25,21-.25S648.54,276.91,648.54,277Z"/><path class="cls-2" d="M628.47,279.53c0,.14-4.89.26-10.91.26s-10.93-.12-10.93-.26,4.89-.25,10.93-.25S628.47,279.37,628.47,279.53Z"/><path class="cls-13" d="M561.94,187.09c2.4-.46,4.84-2.12,5.62-4.28H552.27v4.73h.11C555.54,187,558.8,187.7,561.94,187.09Z"/></g><rect class="cls-5" x="288.49" y="103.05" width="261.82" height="11.06"/><path class="cls-2" d="M296.65,108.58a2.08,2.08,0,1,1-2.08-2.08A2.08,2.08,0,0,1,296.65,108.58Z"/><path class="cls-2" d="M304.57,108.58a2.08,2.08,0,1,1-2.08-2.08A2.08,2.08,0,0,1,304.57,108.58Z"/><path class="cls-2" d="M313.15,108.45a2.08,2.08,0,1,1-2.08-2.08A2.09,2.09,0,0,1,313.15,108.45Z"/><path class="cls-12" d="M200.73,281l-1.91-1.84L197.09,281l-.06-5.31h3.61Zm-1.91-2.07.06.06,1.65,1.61-.05-4.84h-3.29v4.77Z"/></svg>